<?xml version="1.0" encoding="UTF-8"?>
<svg xmlns="http://www.w3.org/2000/svg" xmlns:xlink="http://www.w3.org/1999/xlink" viewBox="0 0 64 64">
  <defs>
    <linearGradient id="grad" x1="0%" y1="0%" x2="100%" y2="100%">
      <stop offset="0%" stop-color="#ee3b6d"/>
      <stop offset="100%" stop-color="#593a96"/>
    </linearGradient>
  </defs>
  <path fill="url(#grad)" d="M34.03,1.68c.05-.8.65-1.7,1.52-1.68,1.16.25,2.24.86,3.07,1.72.59.67,3.42,5.83,4.5,7.57.87.02,1.74-.05,2.61-.09,1.81-.19,3.64-.16,5.46-.3.97-.09,1.94-.12,2.92-.15.36-.02.72.07,1,.3.68.53,1.24,1.2,1.75,1.89l-10.23,4.41,4.08,6.99s9.89-5.8,11.29-6.31c1.83-.74,3.8-1.17,5.78-1.1,1.51-.06,3.02.19,4.47.62,2.6.7,4.97,2.14,6.91,3.99,1.9,1.98,3.39,4.39,4.1,7.06.55,2.16.75,4.43.37,6.63-.42,3.02-1.8,5.85-3.75,8.17-2.57,2.88-6.18,4.84-10.03,5.27-2.42.19-4.91.09-7.2-.77-3.47-1.18-6.5-3.6-8.38-6.75-1.84-3.17-3.67-6.36-5.5-9.54l-10.97,6.34,4,7.01,9-6.6c.27.82.64,1.62.72,2.49.05.38-.12.74-.31,1.06-1.33,2.09-2.73,4.14-4.06,6.23-.62.95-1.29,1.87-1.84,2.86.98,1.92,2.14,3.74,3.19,5.62.47.9,1.19,1.72,1.28,2.77.2,1.04.15,2.21-.48,3.1-.43.51-1.22.4-1.8.26-1.08-.42-2.12-1.09-2.75-2.1-1.37-2.32-2.67-4.68-4.06-6.99-3.67.11-7.33.4-10.99.58-.44.02-.85-.18-1.17-.46-.59-.52-1.11-1.12-1.55-1.77l10.2-4.35-4.07-7.05s-9.59,5.68-11.38,6.36c-.99.4-2.04.61-3.08.85-1.05.24-2.13.2-3.19.2-2.14.02-4.23-.59-6.18-1.44-1.66-.73-3.12-1.83-4.48-3.02-2.1-2.12-3.65-4.79-4.35-7.69-.69-2.94-.53-6.06.4-8.92.85-2.43,2.28-4.64,4.11-6.44,2.12-1.93,4.71-3.39,7.54-3.97,1.63-.4,3.33-.38,5-.3,4.51.43,8.82,2.87,11.43,6.59.67.92,5.82,10.06,6.22,10.51l10.91-6.33-4.01-7.01-8.95,6.67c-.37-.77-.57-1.61-.73-2.45-.1-.42.06-.84.28-1.19,1.77-2.73,3.57-5.45,5.35-8.17.2-.29.37-.6.54-.91-1.29-2.45-2.78-4.78-4.1-7.21-.49-.94-.44-2.04-.38-3.07ZM7.92,23.11c-3.03,3.33-3.52,8.67-1.13,12.49,1.39,2.4,3.81,4.13,6.47,4.84,2.16.53,4.51.45,6.58-.4,1.21-.48,2.31-1.21,3.44-1.85,1.8-1.05,3.61-2.08,5.41-3.12.59-.35,1.22-.64,1.75-1.07-.38-.87-5.53-9.9-6.68-11.12-1.63-1.78-3.89-2.96-6.27-3.31-1.22-.09-2.47-.12-3.68.07-2.26.49-4.4,1.68-5.89,3.47ZM67.53,20.22c-1.7,0-3.36.55-4.86,1.32-2.68,1.54-9.27,5.44-9.27,5.44,0,0,3.71,6.61,5.14,9.05,1.11,1.97,2.82,3.62,4.91,4.52,1.1.46,2.25.87,3.45.89,1.16.02,2.34.07,3.48-.19,2.95-.74,5.56-2.77,6.94-5.49,1.32-2.52,1.57-5.58.66-8.29-.58-2-1.95-3.68-3.52-5.01-1.95-1.52-4.45-2.34-6.92-2.26Z" transform="translate(-1, 0)"/>
</svg>
