<?xml version="1.0" encoding="UTF-8"?>
<svg id="Layer_2" data-name="Layer 2" xmlns="http://www.w3.org/2000/svg" xmlns:xlink="http://www.w3.org/1999/xlink" viewBox="0 0 198.96 94.39">
  <defs>
    <style>
      .cls-1 {
        filter: url(#drop-shadow-1);
      }

      .cls-2 {
        fill: #fff;
      }
    </style>
    <filter id="drop-shadow-1" x="0" y="0" width="198.96" height="94.39" filterUnits="userSpaceOnUse">
      <feOffset dx="0" dy="0"/>
      <feGaussianBlur result="blur" stdDeviation="10"/>
      <feFlood flood-color="#000" flood-opacity="1"/>
      <feComposite in2="blur" operator="in"/>
      <feComposite in="SourceGraphic"/>
    </filter>
  </defs>
  <g id="Layer_1-2" data-name="Layer 1">
    <g class="cls-1">
      <g>
        <path class="cls-2" d="M0,93.96v-30.48h13.74c1.43,0,2.75.29,3.97.88,1.22.59,2.27,1.37,3.16,2.36.89.99,1.58,2.1,2.08,3.33.5,1.23.75,2.48.75,3.74s-.2,2.45-.6,3.59c-.4,1.13-.97,2.15-1.72,3.05s-1.63,1.64-2.66,2.21l6.7,11.33h-7.77l-5.84-9.83h-4.77v9.83H0ZM7.04,77.99h6.44c.57,0,1.08-.18,1.52-.54.44-.36.81-.85,1.09-1.48.29-.63.43-1.36.43-2.19s-.16-1.55-.49-2.17c-.33-.62-.74-1.09-1.22-1.44-.49-.34-1-.52-1.55-.52h-6.23v8.33Z"/>
        <path class="cls-2" d="M37.35,94.39c-1.92,0-3.62-.3-5.11-.91-1.49-.61-2.76-1.44-3.8-2.48-1.05-1.05-1.84-2.26-2.38-3.63-.54-1.37-.82-2.81-.82-4.31,0-2.14.48-4.08,1.44-5.84.96-1.76,2.34-3.18,4.14-4.26,1.8-1.08,3.98-1.62,6.53-1.62s4.72.54,6.5,1.61c1.79,1.07,3.16,2.47,4.1,4.21.94,1.73,1.42,3.61,1.42,5.64,0,.39-.02.78-.06,1.16-.04.38-.08.71-.11.99h-16.66c.09.97.36,1.8.84,2.46.47.67,1.08,1.18,1.83,1.52.74.35,1.53.52,2.36.52,1.03,0,2-.24,2.9-.73.9-.49,1.52-1.14,1.87-1.98l5.84,1.63c-.57,1.17-1.38,2.21-2.43,3.11-1.05.9-2.28,1.61-3.69,2.13-1.42.52-2.98.77-4.7.77ZM32.37,80.74h9.79c-.12-.9-.39-1.69-.82-2.36-.43-.67-1-1.19-1.72-1.56-.72-.37-1.5-.55-2.36-.55s-1.68.18-2.38.55c-.7.37-1.27.89-1.7,1.56-.43.67-.7,1.45-.82,2.36Z"/>
        <path class="cls-2" d="M73.38,93.96h-6.87v-12.41c0-1.46-.28-2.52-.84-3.18s-1.3-.99-2.21-.99c-.63,0-1.27.17-1.93.5-.66.33-1.25.79-1.78,1.36-.53.58-.94,1.24-1.22,1.98v12.73h-6.87v-22.28h6.18v3.8c.57-.87,1.29-1.62,2.15-2.24.86-.62,1.85-1.09,2.96-1.42,1.12-.32,2.33-.49,3.65-.49,1.46,0,2.64.26,3.54.78s1.59,1.21,2.06,2.05c.47.85.79,1.75.94,2.73.16.97.24,1.92.24,2.86v14.21Z"/>
        <path class="cls-2" d="M87.8,94.39c-1.92,0-3.63-.31-5.13-.93-1.5-.62-2.77-1.47-3.8-2.54-1.03-1.07-1.81-2.3-2.34-3.68-.53-1.38-.79-2.83-.79-4.36s.26-3.02.79-4.4c.53-1.38,1.31-2.61,2.34-3.68,1.03-1.07,2.3-1.92,3.8-2.54,1.5-.62,3.21-.93,5.13-.93s3.62.31,5.11.93c1.49.62,2.75,1.47,3.78,2.54,1.03,1.07,1.82,2.3,2.36,3.68.54,1.38.82,2.85.82,4.4s-.27,2.98-.82,4.36-1.33,2.61-2.36,3.68c-1.03,1.07-2.29,1.92-3.78,2.54-1.49.62-3.19.93-5.11.93ZM82.78,82.88c0,1.14.22,2.14.67,3,.44.86,1.04,1.53,1.78,2,.74.47,1.6.71,2.58.71s1.8-.24,2.55-.73c.76-.49,1.35-1.16,1.78-2.02.43-.86.64-1.85.64-2.96s-.21-2.14-.64-3c-.43-.86-1.02-1.53-1.78-2-.76-.47-1.61-.71-2.55-.71s-1.83.24-2.58.71c-.74.47-1.34,1.14-1.78,2-.44.86-.67,1.86-.67,3Z"/>
        <path class="cls-2" d="M113.13,94.39c-1.92,0-3.63-.31-5.13-.93-1.5-.62-2.77-1.47-3.8-2.54-1.03-1.07-1.81-2.3-2.34-3.68-.53-1.38-.79-2.83-.79-4.36s.26-3.02.79-4.4c.53-1.38,1.31-2.61,2.34-3.68,1.03-1.07,2.3-1.92,3.8-2.54,1.5-.62,3.21-.93,5.13-.93s3.62.31,5.11.93c1.49.62,2.75,1.47,3.78,2.54,1.03,1.07,1.82,2.3,2.36,3.68.54,1.38.82,2.85.82,4.4s-.27,2.98-.82,4.36c-.54,1.38-1.33,2.61-2.36,3.68-1.03,1.07-2.29,1.92-3.78,2.54-1.49.62-3.19.93-5.11.93ZM108.11,82.88c0,1.14.22,2.14.67,3,.44.86,1.04,1.53,1.78,2,.74.47,1.6.71,2.58.71s1.8-.24,2.55-.73c.76-.49,1.35-1.16,1.78-2.02.43-.86.64-1.85.64-2.96s-.21-2.14-.64-3c-.43-.86-1.02-1.53-1.78-2-.76-.47-1.61-.71-2.55-.71s-1.83.24-2.58.71c-.74.47-1.34,1.14-1.78,2-.44.86-.67,1.86-.67,3Z"/>
        <path class="cls-2" d="M127.43,93.96v-7h5.62v7h-5.62Z"/>
        <path class="cls-2" d="M172.51,93.96h-6.87v-12.41c0-1.43-.27-2.48-.82-3.15-.54-.67-1.25-1.01-2.1-1.01-.92,0-1.82.36-2.7,1.09-.89.73-1.52,1.67-1.89,2.82v12.66h-6.87v-12.41c0-1.46-.27-2.52-.82-3.18-.54-.66-1.25-.99-2.1-.99s-1.78.36-2.66,1.07c-.89.72-1.53,1.64-1.93,2.77v12.73h-6.87v-22.28h6.18v3.8c.83-1.32,1.95-2.35,3.37-3.07,1.42-.72,3.07-1.08,4.96-1.08s3.29.43,4.29,1.29c1,.86,1.65,1.87,1.93,3.02.86-1.38,2-2.45,3.41-3.19,1.42-.75,3.01-1.12,4.79-1.12,1.43,0,2.59.26,3.48.78.89.52,1.56,1.21,2.02,2.05.46.85.77,1.75.94,2.73.17.97.26,1.92.26,2.86v14.21Z"/>
        <path class="cls-2" d="M186.94,94.39c-1.92,0-3.62-.3-5.11-.91-1.49-.61-2.76-1.44-3.8-2.48-1.05-1.05-1.84-2.26-2.38-3.63-.54-1.37-.82-2.81-.82-4.31,0-2.14.48-4.08,1.44-5.84.96-1.76,2.34-3.18,4.14-4.26,1.8-1.08,3.98-1.62,6.53-1.62s4.72.54,6.5,1.61c1.79,1.07,3.16,2.47,4.1,4.21.94,1.73,1.42,3.61,1.42,5.64,0,.39-.02.78-.06,1.16-.04.38-.08.71-.11.99h-16.66c.09.97.36,1.8.84,2.46.47.67,1.08,1.18,1.83,1.52.74.35,1.53.52,2.36.52,1.03,0,2-.24,2.9-.73.9-.49,1.52-1.14,1.87-1.98l5.84,1.63c-.57,1.17-1.38,2.21-2.43,3.11-1.05.9-2.28,1.61-3.69,2.13-1.42.52-2.98.77-4.7.77ZM181.96,80.74h9.79c-.12-.9-.39-1.69-.82-2.36-.43-.67-1-1.19-1.72-1.56-.72-.37-1.5-.55-2.36-.55s-1.68.18-2.38.55c-.7.37-1.27.89-1.7,1.56-.43.67-.7,1.45-.82,2.36Z"/>
      </g>
      <path class="cls-2" d="M91.93,1.69c.05-.8.65-1.71,1.53-1.69,1.17.25,2.26.87,3.09,1.73.6.67,3.45,5.88,4.53,7.63.88.02,1.76-.05,2.63-.09,1.83-.19,3.67-.16,5.51-.3.98-.09,1.96-.12,2.94-.15.36-.02.72.07,1,.3.68.54,1.25,1.21,1.76,1.91l-10.31,4.45,4.11,7.05s9.97-5.85,11.39-6.36c1.84-.75,3.83-1.18,5.83-1.11,1.53-.06,3.04.19,4.5.63,2.62.71,5.01,2.15,6.96,4.03,1.91,2,3.42,4.43,4.14,7.11.56,2.17.75,4.46.37,6.68-.43,3.04-1.82,5.9-3.78,8.24-2.59,2.9-6.23,4.88-10.11,5.31-2.44.19-4.95.09-7.26-.78-3.49-1.19-6.55-3.63-8.45-6.81-1.86-3.2-3.7-6.41-5.55-9.61l-11.06,6.39,4.03,7.07,9.07-6.65c.27.83.64,1.63.73,2.51.05.38-.12.75-.32,1.07-1.34,2.11-2.75,4.17-4.09,6.28-.62.96-1.3,1.88-1.85,2.88.99,1.93,2.16,3.77,3.22,5.67.48.9,1.2,1.73,1.29,2.8.2,1.05.15,2.23-.49,3.13-.44.52-1.23.41-1.81.26-1.09-.42-2.14-1.1-2.77-2.11-1.38-2.34-2.69-4.72-4.09-7.04-3.7.11-7.39.4-11.08.58-.44.02-.85-.18-1.18-.46-.6-.52-1.12-1.12-1.57-1.78l10.28-4.39-4.11-7.11s-9.66,5.72-11.48,6.41c-1,.41-2.06.62-3.11.86-1.06.24-2.14.2-3.22.2-2.16.02-4.27-.59-6.23-1.45-1.67-.74-3.15-1.85-4.51-3.05-2.11-2.14-3.68-4.83-4.39-7.75-.7-2.96-.54-6.11.4-9,.85-2.45,2.29-4.67,4.14-6.49,2.14-1.95,4.75-3.42,7.6-4,1.65-.4,3.36-.38,5.04-.3,4.55.43,8.89,2.89,11.52,6.64.68.93,5.87,10.14,6.27,10.6l11-6.39-4.04-7.07-9.02,6.73c-.37-.78-.58-1.62-.74-2.47-.1-.42.06-.84.28-1.2,1.79-2.75,3.59-5.49,5.4-8.24.2-.3.37-.61.54-.92-1.3-2.46-2.81-4.82-4.13-7.27-.49-.95-.44-2.06-.38-3.09ZM65.61,23.3c-3.05,3.36-3.54,8.74-1.14,12.59,1.4,2.42,3.84,4.16,6.52,4.88,2.18.53,4.54.45,6.64-.4,1.22-.49,2.33-1.22,3.47-1.86,1.82-1.05,3.64-2.09,5.45-3.15.6-.35,1.23-.64,1.77-1.08-.38-.87-5.58-9.98-6.74-11.21-1.64-1.79-3.92-2.98-6.32-3.34-1.23-.09-2.49-.12-3.71.07-2.28.5-4.44,1.69-5.94,3.49ZM125.7,20.39c-1.72,0-3.39.55-4.9,1.33-2.7,1.55-9.35,5.48-9.35,5.48,0,0,3.74,6.66,5.18,9.12,1.12,1.98,2.84,3.65,4.95,4.55,1.11.47,2.26.88,3.48.9,1.17.02,2.36.07,3.51-.19,2.98-.74,5.6-2.79,7-5.53,1.33-2.54,1.58-5.63.66-8.35-.59-2.02-1.97-3.71-3.55-5.05-1.96-1.53-4.49-2.36-6.98-2.28Z"/>
    </g>
  </g>
</svg>