<?xml version="1.0" encoding="UTF-8"?>
<svg id="Layer_1" xmlns="http://www.w3.org/2000/svg" version="1.1" viewBox="0 0 217.7 121.2">
  <!-- Generator: Adobe Illustrator 29.5.0, SVG Export Plug-In . SVG Version: 2.1.0 Build 137)  -->
  <defs>
    <style>
      .st0 {
        fill: #fff;
      }
    </style>
  </defs>
  <g>
    <path class="st0" d="M9.4,107.4v-30.5h13.7c1.4,0,2.8.3,4,.9,1.2.6,2.3,1.4,3.2,2.4.9,1,1.6,2.1,2.1,3.3.5,1.2.8,2.5.8,3.7s-.2,2.5-.6,3.6c-.4,1.1-1,2.1-1.7,3s-1.6,1.6-2.7,2.2l6.7,11.3h-7.8l-5.8-9.8h-4.8v9.8h-7ZM16.4,91.4h6.4c.6,0,1.1-.2,1.5-.5.4-.4.8-.9,1.1-1.5.3-.6.4-1.4.4-2.2s-.2-1.6-.5-2.2c-.3-.6-.7-1.1-1.2-1.4-.5-.3-1-.5-1.5-.5h-6.2v8.3Z"/>
    <path class="st0" d="M46.7,107.8c-1.9,0-3.6-.3-5.1-.9-1.5-.6-2.8-1.4-3.8-2.5-1-1-1.8-2.3-2.4-3.6-.5-1.4-.8-2.8-.8-4.3,0-2.1.5-4.1,1.4-5.8,1-1.8,2.3-3.2,4.1-4.3,1.8-1.1,4-1.6,6.5-1.6s4.7.5,6.5,1.6c1.8,1.1,3.2,2.5,4.1,4.2.9,1.7,1.4,3.6,1.4,5.6s0,.8,0,1.2c0,.4,0,.7-.1,1h-16.7c0,1,.4,1.8.8,2.5.5.7,1.1,1.2,1.8,1.5.7.3,1.5.5,2.4.5s2-.2,2.9-.7c.9-.5,1.5-1.1,1.9-2l5.8,1.6c-.6,1.2-1.4,2.2-2.4,3.1-1,.9-2.3,1.6-3.7,2.1-1.4.5-3,.8-4.7.8ZM41.7,94.2h9.8c-.1-.9-.4-1.7-.8-2.4-.4-.7-1-1.2-1.7-1.6-.7-.4-1.5-.6-2.4-.6s-1.7.2-2.4.6c-.7.4-1.3.9-1.7,1.6-.4.7-.7,1.5-.8,2.4Z"/>
    <path class="st0" d="M82.7,107.4h-6.9v-12.4c0-1.5-.3-2.5-.8-3.2s-1.3-1-2.2-1-1.3.2-1.9.5c-.7.3-1.3.8-1.8,1.4-.5.6-.9,1.2-1.2,2v12.7h-6.9v-22.3h6.2v3.8c.6-.9,1.3-1.6,2.1-2.2.9-.6,1.8-1.1,3-1.4,1.1-.3,2.3-.5,3.6-.5s2.6.3,3.5.8,1.6,1.2,2.1,2.1c.5.8.8,1.8.9,2.7.2,1,.2,1.9.2,2.9v14.2Z"/>
    <path class="st0" d="M97.2,107.8c-1.9,0-3.6-.3-5.1-.9-1.5-.6-2.8-1.5-3.8-2.5-1-1.1-1.8-2.3-2.3-3.7-.5-1.4-.8-2.8-.8-4.4s.3-3,.8-4.4c.5-1.4,1.3-2.6,2.3-3.7,1-1.1,2.3-1.9,3.8-2.5,1.5-.6,3.2-.9,5.1-.9s3.6.3,5.1.9c1.5.6,2.7,1.5,3.8,2.5,1,1.1,1.8,2.3,2.4,3.7.5,1.4.8,2.8.8,4.4s-.3,3-.8,4.4-1.3,2.6-2.4,3.7c-1,1.1-2.3,1.9-3.8,2.5-1.5.6-3.2.9-5.1.9ZM92.1,96.3c0,1.1.2,2.1.7,3,.4.9,1,1.5,1.8,2,.7.5,1.6.7,2.6.7s1.8-.2,2.6-.7c.8-.5,1.4-1.2,1.8-2,.4-.9.6-1.8.6-3s-.2-2.1-.6-3c-.4-.9-1-1.5-1.8-2-.8-.5-1.6-.7-2.6-.7s-1.8.2-2.6.7c-.7.5-1.3,1.1-1.8,2-.4.9-.7,1.9-.7,3Z"/>
    <path class="st0" d="M122.5,107.8c-1.9,0-3.6-.3-5.1-.9-1.5-.6-2.8-1.5-3.8-2.5-1-1.1-1.8-2.3-2.3-3.7-.5-1.4-.8-2.8-.8-4.4s.3-3,.8-4.4c.5-1.4,1.3-2.6,2.3-3.7,1-1.1,2.3-1.9,3.8-2.5,1.5-.6,3.2-.9,5.1-.9s3.6.3,5.1.9c1.5.6,2.7,1.5,3.8,2.5,1,1.1,1.8,2.3,2.4,3.7.5,1.4.8,2.8.8,4.4s-.3,3-.8,4.4c-.5,1.4-1.3,2.6-2.4,3.7-1,1.1-2.3,1.9-3.8,2.5-1.5.6-3.2.9-5.1.9ZM117.5,96.3c0,1.1.2,2.1.7,3,.4.9,1,1.5,1.8,2,.7.5,1.6.7,2.6.7s1.8-.2,2.6-.7c.8-.5,1.4-1.2,1.8-2,.4-.9.6-1.8.6-3s-.2-2.1-.6-3c-.4-.9-1-1.5-1.8-2-.8-.5-1.6-.7-2.6-.7s-1.8.2-2.6.7c-.7.5-1.3,1.1-1.8,2-.4.9-.7,1.9-.7,3Z"/>
    <path class="st0" d="M136.8,107.4v-7h5.6v7h-5.6Z"/>
    <path class="st0" d="M181.9,107.4h-6.9v-12.4c0-1.4-.3-2.5-.8-3.2-.5-.7-1.2-1-2.1-1s-1.8.4-2.7,1.1c-.9.7-1.5,1.7-1.9,2.8v12.7h-6.9v-12.4c0-1.5-.3-2.5-.8-3.2-.5-.7-1.2-1-2.1-1s-1.8.4-2.7,1.1c-.9.7-1.5,1.6-1.9,2.8v12.7h-6.9v-22.3h6.2v3.8c.8-1.3,2-2.3,3.4-3.1,1.4-.7,3.1-1.1,5-1.1s3.3.4,4.3,1.3c1,.9,1.6,1.9,1.9,3,.9-1.4,2-2.4,3.4-3.2,1.4-.7,3-1.1,4.8-1.1s2.6.3,3.5.8c.9.5,1.6,1.2,2,2.1.5.8.8,1.8.9,2.7.2,1,.3,1.9.3,2.9v14.2Z"/>
    <path class="st0" d="M196.3,107.8c-1.9,0-3.6-.3-5.1-.9-1.5-.6-2.8-1.4-3.8-2.5-1-1-1.8-2.3-2.4-3.6-.5-1.4-.8-2.8-.8-4.3,0-2.1.5-4.1,1.4-5.8,1-1.8,2.3-3.2,4.1-4.3,1.8-1.1,4-1.6,6.5-1.6s4.7.5,6.5,1.6c1.8,1.1,3.2,2.5,4.1,4.2.9,1.7,1.4,3.6,1.4,5.6s0,.8,0,1.2c0,.4,0,.7-.1,1h-16.7c0,1,.4,1.8.8,2.5.5.7,1.1,1.2,1.8,1.5.7.3,1.5.5,2.4.5s2-.2,2.9-.7c.9-.5,1.5-1.1,1.9-2l5.8,1.6c-.6,1.2-1.4,2.2-2.4,3.1-1,.9-2.3,1.6-3.7,2.1-1.4.5-3,.8-4.7.8ZM191.3,94.2h9.8c-.1-.9-.4-1.7-.8-2.4-.4-.7-1-1.2-1.7-1.6-.7-.4-1.5-.6-2.4-.6s-1.7.2-2.4.6c-.7.4-1.3.9-1.7,1.6-.4.7-.7,1.5-.8,2.4Z"/>
  </g>
  <path class="st0" d="M101.3,15.1c0-.8.7-1.7,1.5-1.7,1.2.2,2.3.9,3.1,1.7.6.7,3.5,5.9,4.5,7.6.9,0,1.8,0,2.6,0,1.8-.2,3.7-.2,5.5-.3,1,0,2-.1,2.9-.2.4,0,.7,0,1,.3.7.5,1.2,1.2,1.8,1.9l-10.3,4.4,4.1,7s10-5.8,11.4-6.4c1.8-.7,3.8-1.2,5.8-1.1,1.5,0,3,.2,4.5.6,2.6.7,5,2.2,7,4,1.9,2,3.4,4.4,4.1,7.1.6,2.2.8,4.5.4,6.7-.4,3-1.8,5.9-3.8,8.2-2.6,2.9-6.2,4.9-10.1,5.3-2.4.2-4.9,0-7.3-.8-3.5-1.2-6.6-3.6-8.4-6.8-1.9-3.2-3.7-6.4-5.5-9.6l-11.1,6.4,4,7.1,9.1-6.6c.3.8.6,1.6.7,2.5,0,.4-.1.7-.3,1.1-1.3,2.1-2.8,4.2-4.1,6.3-.6,1-1.3,1.9-1.9,2.9,1,1.9,2.2,3.8,3.2,5.7.5.9,1.2,1.7,1.3,2.8.2,1.1.2,2.2-.5,3.1-.4.5-1.2.4-1.8.3-1.1-.4-2.1-1.1-2.8-2.1-1.4-2.3-2.7-4.7-4.1-7-3.7.1-7.4.4-11.1.6-.4,0-.9-.2-1.2-.5-.6-.5-1.1-1.1-1.6-1.8l10.3-4.4-4.1-7.1s-9.7,5.7-11.5,6.4c-1,.4-2.1.6-3.1.9-1.1.2-2.1.2-3.2.2-2.2,0-4.3-.6-6.2-1.5-1.7-.7-3.1-1.8-4.5-3-2.1-2.1-3.7-4.8-4.4-7.8-.7-3-.5-6.1.4-9,.9-2.4,2.3-4.7,4.1-6.5,2.1-1.9,4.8-3.4,7.6-4,1.6-.4,3.4-.4,5-.3,4.5.4,8.9,2.9,11.5,6.6.7.9,5.9,10.1,6.3,10.6l11-6.4-4-7.1-9,6.7c-.4-.8-.6-1.6-.7-2.5-.1-.4,0-.8.3-1.2,1.8-2.8,3.6-5.5,5.4-8.2.2-.3.4-.6.5-.9-1.3-2.5-2.8-4.8-4.1-7.3-.5-1-.4-2.1-.4-3.1ZM75,36.7c-3.1,3.4-3.5,8.7-1.1,12.6,1.4,2.4,3.8,4.2,6.5,4.9,2.2.5,4.5.5,6.6-.4,1.2-.5,2.3-1.2,3.5-1.9,1.8-1.1,3.6-2.1,5.4-3.1.6-.3,1.2-.6,1.8-1.1-.4-.9-5.6-10-6.7-11.2-1.6-1.8-3.9-3-6.3-3.3-1.2,0-2.5-.1-3.7,0-2.3.5-4.4,1.7-5.9,3.5ZM135.1,33.8c-1.7,0-3.4.6-4.9,1.3-2.7,1.6-9.3,5.5-9.3,5.5,0,0,3.7,6.7,5.2,9.1,1.1,2,2.8,3.6,4.9,4.6,1.1.5,2.3.9,3.5.9,1.2,0,2.4,0,3.5-.2,3-.7,5.6-2.8,7-5.5,1.3-2.5,1.6-5.6.7-8.4-.6-2-2-3.7-3.5-5-2-1.5-4.5-2.4-7-2.3Z"/>
</svg>