<?xml version="1.0" encoding="UTF-8"?>
<svg id="Layer_2" data-name="Layer 2" xmlns="http://www.w3.org/2000/svg" xmlns:xlink="http://www.w3.org/1999/xlink" viewBox="0 0 354.06 60.89">
  <defs>
    <style>
      .cls-1 {
        fill: #ffffff;
      }

      .cls-2 {
        fill: url(#linear-gradient);
      }
    </style>
    <linearGradient id="linear-gradient" x1="27.57" y1="2.78" x2="54.94" y2="55.69" gradientUnits="userSpaceOnUse">
      <stop offset="0" stop-color="#ee3b6d"/>
      <stop offset="1" stop-color="#593a96"/>
    </linearGradient>
  </defs>
  <g id="Layer_1-2" data-name="Layer 1">
    <g>
      <g>
        <path class="cls-1" d="M104.32,47.45V9.18h17.25c1.8,0,3.46.37,4.98,1.1,1.53.74,2.85,1.72,3.96,2.96,1.11,1.24,1.98,2.63,2.61,4.18.63,1.55.94,3.11.94,4.69s-.25,3.08-.75,4.5c-.5,1.42-1.22,2.69-2.16,3.83-.93,1.13-2.05,2.06-3.34,2.78l8.41,14.23h-9.75l-7.33-12.34h-5.98v12.34h-8.84ZM113.16,27.4h8.08c.72,0,1.36-.22,1.91-.67.56-.45,1.01-1.07,1.37-1.86.36-.79.54-1.71.54-2.75s-.21-1.95-.62-2.72c-.41-.77-.93-1.37-1.54-1.81-.61-.43-1.26-.65-1.94-.65h-7.81v10.46Z"/>
        <path class="cls-1" d="M151.21,47.99c-2.41,0-4.55-.38-6.41-1.14-1.87-.76-3.46-1.8-4.77-3.12-1.31-1.31-2.31-2.83-2.99-4.56-.68-1.72-1.02-3.53-1.02-5.41,0-2.68.6-5.13,1.81-7.33,1.2-2.2,2.94-3.99,5.2-5.34,2.26-1.36,4.99-2.04,8.19-2.04s5.92.67,8.16,2.02c2.24,1.34,3.96,3.1,5.15,5.28,1.19,2.18,1.78,4.54,1.78,7.08,0,.5-.03.98-.08,1.46-.05.48-.1.89-.13,1.25h-20.91c.11,1.22.46,2.25,1.05,3.09.59.84,1.36,1.48,2.29,1.91.93.44,1.92.66,2.96.66,1.29,0,2.51-.3,3.64-.92,1.13-.61,1.91-1.44,2.34-2.48l7.33,2.05c-.72,1.47-1.73,2.78-3.04,3.91-1.31,1.13-2.86,2.02-4.63,2.67-1.78.65-3.75.97-5.9.97ZM144.96,30.85h12.29c-.14-1.13-.49-2.12-1.02-2.96-.54-.84-1.26-1.49-2.16-1.95-.9-.46-1.89-.69-2.96-.69s-2.11.23-2.99.69c-.88.46-1.59,1.11-2.13,1.95-.54.84-.88,1.83-1.02,2.96Z"/>
        <path class="cls-1" d="M196.43,47.45h-8.62v-15.58c0-1.83-.35-3.16-1.05-3.99-.7-.83-1.63-1.24-2.78-1.24-.79,0-1.6.21-2.43.62-.83.42-1.57.99-2.24,1.71-.66.73-1.18,1.56-1.54,2.49v15.98h-8.62v-27.97h7.76v4.77c.72-1.1,1.62-2.03,2.69-2.81,1.08-.78,2.32-1.37,3.72-1.78,1.4-.41,2.93-.61,4.58-.61,1.83,0,3.31.33,4.45.98,1.13.66,1.99,1.51,2.59,2.57.59,1.06.99,2.2,1.19,3.42.2,1.22.3,2.42.3,3.58v17.84Z"/>
        <path class="cls-1" d="M214.53,47.99c-2.41,0-4.55-.39-6.44-1.17-1.89-.78-3.48-1.84-4.77-3.19-1.29-1.34-2.27-2.88-2.94-4.62-.67-1.73-1-3.56-1-5.47s.33-3.79,1-5.52c.66-1.73,1.64-3.27,2.94-4.62,1.29-1.34,2.88-2.41,4.77-3.19,1.89-.78,4.03-1.17,6.44-1.17s4.54.39,6.41,1.17c1.87.78,3.45,1.84,4.74,3.19,1.29,1.35,2.28,2.89,2.96,4.62.68,1.73,1.02,3.58,1.02,5.52s-.34,3.73-1.02,5.47-1.67,3.27-2.96,4.62c-1.29,1.35-2.87,2.41-4.74,3.19-1.87.78-4.01,1.17-6.41,1.17ZM208.23,33.54c0,1.43.28,2.69.84,3.77.56,1.08,1.3,1.92,2.24,2.51.93.59,2.01.89,3.23.89s2.25-.3,3.21-.92c.95-.61,1.7-1.46,2.24-2.54.54-1.08.81-2.32.81-3.71s-.27-2.69-.81-3.77c-.54-1.08-1.28-1.92-2.24-2.51-.95-.59-2.02-.89-3.21-.89s-2.3.3-3.23.89c-.93.59-1.68,1.43-2.24,2.51-.56,1.08-.84,2.34-.84,3.77Z"/>
        <path class="cls-1" d="M246.33,47.99c-2.41,0-4.55-.39-6.44-1.17-1.89-.78-3.48-1.84-4.77-3.19-1.29-1.34-2.27-2.88-2.94-4.62-.67-1.73-1-3.56-1-5.47s.33-3.79,1-5.52c.66-1.73,1.64-3.27,2.94-4.62,1.29-1.34,2.88-2.41,4.77-3.19,1.89-.78,4.03-1.17,6.44-1.17s4.54.39,6.41,1.17c1.87.78,3.45,1.84,4.74,3.19,1.29,1.35,2.28,2.89,2.96,4.62.68,1.73,1.02,3.58,1.02,5.52s-.34,3.73-1.02,5.47c-.68,1.73-1.67,3.27-2.96,4.62-1.29,1.35-2.87,2.41-4.74,3.19-1.87.78-4.01,1.17-6.41,1.17ZM240.02,33.54c0,1.43.28,2.69.84,3.77.56,1.08,1.3,1.92,2.24,2.51.93.59,2.01.89,3.23.89s2.25-.3,3.21-.92c.95-.61,1.7-1.46,2.24-2.54.54-1.08.81-2.32.81-3.71s-.27-2.69-.81-3.77c-.54-1.08-1.28-1.92-2.24-2.51-.95-.59-2.02-.89-3.21-.89s-2.3.3-3.23.89c-.93.59-1.68,1.43-2.24,2.51-.56,1.08-.84,2.34-.84,3.77Z"/>
        <path class="cls-1" d="M264.28,47.45v-8.78h7.06v8.78h-7.06Z"/>
        <path class="cls-1" d="M320.86,47.45h-8.62v-15.58c0-1.79-.34-3.11-1.02-3.96-.68-.84-1.56-1.27-2.64-1.27-1.15,0-2.28.46-3.39,1.37-1.11.92-1.91,2.09-2.37,3.54v15.89h-8.62v-15.58c0-1.83-.34-3.16-1.02-3.99-.68-.83-1.56-1.24-2.64-1.24s-2.23.45-3.34,1.35c-1.11.9-1.92,2.06-2.43,3.47v15.98h-8.62v-27.97h7.76v4.77c1.04-1.66,2.45-2.95,4.23-3.85,1.78-.9,3.85-1.35,6.22-1.35s4.13.54,5.39,1.62c1.26,1.08,2.07,2.34,2.43,3.8,1.08-1.73,2.51-3.07,4.28-4.01s3.78-1.41,6.01-1.41c1.8,0,3.25.33,4.37.98,1.11.66,1.96,1.51,2.53,2.57.57,1.06.97,2.2,1.19,3.42.22,1.22.32,2.42.32,3.58v17.84Z"/>
        <path class="cls-1" d="M338.97,47.99c-2.41,0-4.55-.38-6.41-1.14-1.87-.76-3.46-1.8-4.77-3.12-1.31-1.31-2.31-2.83-2.99-4.56-.68-1.72-1.02-3.53-1.02-5.41,0-2.68.6-5.13,1.81-7.33,1.2-2.2,2.94-3.99,5.2-5.34,2.26-1.36,4.99-2.04,8.19-2.04s5.92.67,8.16,2.02c2.24,1.34,3.96,3.1,5.15,5.28,1.19,2.18,1.78,4.54,1.78,7.08,0,.5-.03.98-.08,1.46-.05.48-.1.89-.13,1.25h-20.91c.11,1.22.46,2.25,1.05,3.09.59.84,1.36,1.48,2.29,1.91.93.44,1.92.66,2.96.66,1.29,0,2.51-.3,3.64-.92,1.13-.61,1.91-1.44,2.34-2.48l7.33,2.05c-.72,1.47-1.73,2.78-3.04,3.91-1.31,1.13-2.86,2.02-4.63,2.67-1.78.65-3.75.97-5.9.97ZM332.72,30.85h12.29c-.14-1.13-.49-2.12-1.02-2.96-.54-.84-1.26-1.49-2.16-1.95-.9-.46-1.89-.69-2.96-.69s-2.11.23-2.99.69c-.88.46-1.59,1.11-2.13,1.95-.54.84-.88,1.83-1.02,2.96Z"/>
      </g>
      <path class="cls-2" d="M34.03,1.68c.05-.8.65-1.7,1.52-1.68,1.16.25,2.24.86,3.07,1.72.59.67,3.42,5.83,4.5,7.57.87.02,1.74-.05,2.61-.09,1.81-.19,3.64-.16,5.46-.3.97-.09,1.94-.12,2.92-.15.36-.02.72.07,1,.3.68.53,1.24,1.2,1.75,1.89l-10.23,4.41,4.08,6.99s9.89-5.8,11.29-6.31c1.83-.74,3.8-1.17,5.78-1.1,1.51-.06,3.02.19,4.47.62,2.6.7,4.97,2.14,6.91,3.99,1.9,1.98,3.39,4.39,4.1,7.06.55,2.16.75,4.43.37,6.63-.42,3.02-1.8,5.85-3.75,8.17-2.57,2.88-6.18,4.84-10.03,5.27-2.42.19-4.91.09-7.2-.77-3.47-1.18-6.5-3.6-8.38-6.75-1.84-3.17-3.67-6.36-5.5-9.54l-10.97,6.34,4,7.01,9-6.6c.27.82.64,1.62.72,2.49.05.38-.12.74-.31,1.06-1.33,2.09-2.73,4.14-4.06,6.23-.62.95-1.29,1.87-1.84,2.86.98,1.92,2.14,3.74,3.19,5.62.47.9,1.19,1.72,1.28,2.77.2,1.04.15,2.21-.48,3.1-.43.51-1.22.4-1.8.26-1.08-.42-2.12-1.09-2.75-2.1-1.37-2.32-2.67-4.68-4.06-6.99-3.67.11-7.33.4-10.99.58-.44.02-.85-.18-1.17-.46-.59-.52-1.11-1.12-1.55-1.77l10.2-4.35-4.07-7.05s-9.59,5.68-11.38,6.36c-.99.4-2.04.61-3.08.85-1.05.24-2.13.2-3.19.2-2.14.02-4.23-.59-6.18-1.44-1.66-.73-3.12-1.83-4.48-3.02-2.1-2.12-3.65-4.79-4.35-7.69-.69-2.94-.53-6.06.4-8.92.85-2.43,2.28-4.64,4.11-6.44,2.12-1.93,4.71-3.39,7.54-3.97,1.63-.4,3.33-.38,5-.3,4.51.43,8.82,2.87,11.43,6.59.67.92,5.82,10.06,6.22,10.51l10.91-6.33-4.01-7.01-8.95,6.67c-.37-.77-.57-1.61-.73-2.45-.1-.42.06-.84.28-1.19,1.77-2.73,3.57-5.45,5.35-8.17.2-.29.37-.6.54-.91-1.29-2.45-2.78-4.78-4.1-7.21-.49-.94-.44-2.04-.38-3.07ZM7.92,23.11c-3.03,3.33-3.52,8.67-1.13,12.49,1.39,2.4,3.81,4.13,6.47,4.84,2.16.53,4.51.45,6.58-.4,1.21-.48,2.31-1.21,3.44-1.85,1.8-1.05,3.61-2.08,5.41-3.12.59-.35,1.22-.64,1.75-1.07-.38-.87-5.53-9.9-6.68-11.12-1.63-1.78-3.89-2.96-6.27-3.31-1.22-.09-2.47-.12-3.68.07-2.26.49-4.4,1.68-5.89,3.47ZM67.53,20.22c-1.7,0-3.36.55-4.86,1.32-2.68,1.54-9.27,5.44-9.27,5.44,0,0,3.71,6.61,5.14,9.05,1.11,1.97,2.82,3.62,4.91,4.52,1.1.46,2.25.87,3.45.89,1.16.02,2.34.07,3.48-.19,2.95-.74,5.56-2.77,6.94-5.49,1.32-2.52,1.57-5.58.66-8.29-.58-2-1.95-3.68-3.52-5.01-1.95-1.52-4.45-2.34-6.92-2.26Z"/>
    </g>
  </g>
</svg>
